<?xml version="1.0" encoding="utf-8"?>
<!-- Generator: Adobe Illustrator 24.0.1, SVG Export Plug-In . SVG Version: 6.00 Build 0)  -->
<svg version="1.1" id="Layer_1" xmlns="http://www.w3.org/2000/svg" xmlns:xlink="http://www.w3.org/1999/xlink" x="0px" y="0px"
	 viewBox="0 0 1296 1728" style="enable-background:new 0 0 1296 1728;" xml:space="preserve">
<style type="text/css">
	.st0{fill:#FE7E01;}
	.st1{fill:#FFFFFF;}
</style>
<g>
	<g>
		<g>
			<path class="st0" d="M1282,897.8c-24.7-123.6-82.6-229.9-170.7-319.9c-2.7-2.2-2.2-1.8-5.4-4c0,0-175.5,182.7-175.2,183
				c-0.6,0-1.3,0-1.9,0c-1,0.3-1.3,1-1.9,1.6c47.7,19.9,93.8,43.9,138,73.3c24.7,16.3,48.4,35.2,71.7,54.1
				c20.5,16.3,28.5,46.4,21.1,71.4c-9,29.8-29.5,48.4-56.4,49.6c-12.8,0.6-24.7-3.5-34.9-12.5c-69.8-60.8-148.9-100.6-232.8-129.4
				c-2.9-1-5.8-1.9-8.6-2.9l0,0c-0.6,0-1.1-0.6-1.8-0.6c-1,0.3-100.2,82.7-100.8,83.3c0.3,0.3,14.8,3.7,15.1,4.1c-0.6,0-1,0-1.6-0.3
				c-1,1-1.9,1.9-2.9,2.9c0.3,0.3,0.6,0.3,1.3,0.6c-0.6,0-1,0-1.6-0.3l0,0c75.3,21.5,147,54.1,214.9,99.3
				c27.9,18.6,53.8,40.3,79.7,62.1c16,13.4,21.5,33.6,16,56c-5.8,24.3-20.5,39.1-42.3,42.9c-12.8,2.2-24.7-1.3-34.6-10.2
				c-60.5-54.8-128.7-94.1-202.4-121.7c-29.8-11.2-60.5-19.5-91.3-28.2c-11.8-3.2-24-6.1-35.9-8.6c-1,1.3-1.9,2.6-2.9,3.5
				c1-1,2.2-2.2,2.9-3.5c-28.5-5.8-57.3-9-86.5-11.2c-59.6-4.5-119.4-1.3-178.7,10.9c-33,6.7-58.3-17.3-58.3-55.4
				c0-24,18.3-49,41.3-53.2c29.1-5.4,58.6-10.2,88.1-12.8c53.8-5.1,107.6-3.8,161.1,3.8c39.7,5.1,78.8,12.8,116.9,23.1
				c22.7-32.3,42.3-65.6,58.3-100.2c-29.1-8.3-58.6-15.1-88.4-19.9c-37.1-5.8-74-11.8-111.4-14.7c-70.1-5.4-140.6-3.5-210.7,10.9
				c-42,8.6-74-28.8-66.9-76.5c4.2-26.6,24.3-49,49-54.4c40.3-8.6,81.3-13.1,122-14.7c58.3-2.6,116.2,0,173.9,7.7
				c0-0.6,0.3-1.3,0.3-2.2c44.8,9,90.3,16.3,134.8,27.5c13.4,3.2,26.9,7,40,10.9c10.2-44.8,15.4-91.3,15.7-139.6
				c0.6-178.7-59.2-329.2-177.7-456c-3.8-4.2-8-7.7-12.2-11.8c-2.9,2.6-4.8,3.8-6.1,5.1C493,268.8,344.7,416.8,196.5,565
				c-2.9,2.9-4.5,6.7-6.4,10.2c-4.5,3.5-9.9,6.1-13.4,10.6c-26.9,34.3-56,67.2-79.7,103.4c-63.4,98-94.1,206.9-96.7,322.8
				c-1,41.3,2.9,82.9,9,123.9c19.2,124.9,72.7,234.1,157.9,327.3c7,8,31.7,32,36.5,36.5c97.7,92.5,213.3,148.3,346.2,169.1
				c105.4,16.7,208.2,6.7,308.7-26.9c95.8-32,178.1-85.8,249.8-156.3c17-18.9,35.5-36.5,50.9-56.7
				C1278.5,1270.5,1320.8,1093.1,1282,897.8z M941.3,1354.4c-5.4,18.3-20.2,30.1-38.1,31.1c-9.6,0.3-17.6-3.8-24.7-10.6
				c-45.5-41-95.8-72.4-150.5-95.1c-32.7-13.4-66.3-25-100.9-30.7c-34.6-5.8-69.2-11.5-103.8-14.1c-54.8-4.2-109.8-1.3-164.6,6.7
				c-27.5,4.2-44.2-16.7-46.4-37.1c-2.6-25.3,13.1-49,36.2-51.2c36.5-3.5,73-7.7,109.5-8.3c41.6-1,82.9,1.6,124.6,2.9
				c0,0.6,0,1.6-0.3,2.2c96.4,12.2,188,41.6,271.2,96.7c25.9,17.3,50.3,37.5,74.6,57.3C942.9,1316.3,947.4,1335.2,941.3,1354.4z"/>
		</g>
	</g>
	<g>
		<path class="st1" d="M783.1,708.8c100.6,25,196.9,62.8,285.6,121.4c25,16.7,49,35.5,72.7,54.4c20.5,16.7,28.8,46.4,21.1,71.4
			c-9.3,29.8-30.1,48-57.3,49.3c-13.1,0.6-25-3.8-35.2-12.5C999.3,932,919.2,892,834,862.5c-47.1-16.3-94.8-29.5-143.5-37.5
			c-37.5-6.1-75.3-12.5-113-15.4c-71.1-5.8-142.5-4.5-213.6,9.6c-42.6,8.3-74.9-29.1-67.9-76.5c4.2-26.6,24.7-48.7,50-53.8
			c41-8.3,82.3-12.5,123.9-14.1c59.2-2.2,117.8,0.6,176.4,8.6C646.1,682.2,738,697.6,783.1,708.8z"/>
		<path class="st1" d="M602.2,920.8c124.3,16.3,241.1,56.4,348.1,127.1c28.2,18.6,54.4,40.7,81,62.4c16.3,13.4,21.8,33.6,16.3,56
			c-5.8,24.3-20.8,38.7-42.9,42.3c-12.8,2.2-25-1.3-34.9-10.2c-61.5-55.1-130.7-94.5-205.3-122.3c-30.4-11.2-61.5-19.9-92.5-28.8
			c-40.7-11.5-82.3-17-123.9-20.2c-60.5-4.8-121-1.9-181.3,9.9c-33.6,6.7-59.2-17.6-58.9-55.4c0-24,18.6-48.7,42-52.8
			c29.8-5.1,59.6-9.9,89.3-12.5C493.3,911.5,548.1,913.1,602.2,920.8z"/>
		<path class="st1" d="M580.4,1148.8c97.7,12.5,190.5,42.3,275.1,98c26.3,17.3,50.9,37.8,75.6,57.6c15.1,12.2,19.5,31.1,13.4,50.3
			c-5.8,18.3-20.5,30.1-38.7,30.7c-9.6,0.3-17.9-4.2-25-10.6c-46.1-41-97-72.7-152.8-95.8c-33.3-13.8-67.2-25.3-102.5-31.4
			c-34.9-6.1-70.1-11.8-105.4-14.7c-55.4-4.2-111.4-1.9-166.8,5.8c-27.9,3.8-44.8-17-47.1-37.1c-2.6-25.3,13.4-48.7,36.8-50.9
			c37.1-3.5,74-7,111.1-7.7c42.3-0.6,84.2,2.2,126.2,3.5C580.7,1147.6,580.4,1148.2,580.4,1148.8z"/>
	</g>
</g>
</svg>
